Input #0, lavfi, from 'yuvtestsrc=duration=60:size=1920x1080:rate=30':
  Duration: N/A, start: 0.000000, bitrate: N/A
  Stream #0:0: Video: rawvideo (444P / 0x50343434), yuv444p, 1920x1080 [SAR 1:1 DAR 16:9], 30 tbr, 30 tbn, 30 tbc
Stream mapping:
  Stream #0:0 -> #0:0 (rawvideo (native) -> h264 (h264_nvenc))
Press [q] to stop, [?] for help
Output #0, mp4, to './test_results/temp_tests_gpu/test_test_50_38/output.mp4':
  Metadata:
    encoder         : Lavf58.76.100
  Stream #0:0: Video: h264 (High 4:4:4 Predictive) (avc1 / 0x31637661), yuv444p(tv, progressive), 1280x720 [SAR 1:1 DAR 16:9], q=2-31, 30 fps, 15360 tbn
    Metadata:
      encoder         : Lavc58.134.100 h264_nvenc
    Side data:
      cpb: bitrate max/min/avg: 3000000/0/0 buffer size: 4000000 vbv_delay: N/A
frame=    1 fps=0.0 q=0.0 size=       0kB time=00:00:00.00 bitrate=N/A speed=N/A    frame=    2 fps=0.4 q=0.0 size=       0kB time=00:00:00.00 bitrate=N/A speed=   0x    frame=   90 fps= 15 q=23.0 size=       0kB time=00:00:02.90 bitrate=   0.1kbits/s speed=0.478x    frame=  197 fps= 30 q=23.0 size=       0kB time=00:00:06.46 bitrate=   0.1kbits/s speed=0.984x    frame=  282 fps= 40 q=23.0 size=       0kB time=00:00:09.30 bitrate=   0.0kbits/s speed=1.31x    frame=  367 fps= 48 q=23.0 size=       0kB time=00:00:12.13 bitrate=   0.0kbits/s speed= 1.6x    frame=  459 fps= 57 q=23.0 size=       0kB time=00:00:15.20 bitrate=   0.0kbits/s speed=1.88x    frame=  566 fps= 66 q=23.0 size=       0kB time=00:00:18.76 bitrate=   0.0kbits/s speed=2.19x    frame=  666 fps= 73 q=23.0 size=       0kB time=00:00:22.10 bitrate=   0.0kbits/s speed=2.43x    frame=  759 fps= 79 q=23.0 size=       0kB time=00:00:25.20 bitrate=   0.0kbits/s speed=2.63x    frame=  835 fps= 83 q=23.0 size=       0kB time=00:00:27.73 bitrate=   0.0kbits/s speed=2.75x    frame=  918 fps= 87 q=23.0 size=       0kB time=00:00:30.50 bitrate=   0.0kbits/s speed=2.88x    frame= 1007 fps= 91 q=23.0 size=       0kB time=00:00:33.46 bitrate=   0.0kbits/s speed=3.02x    frame= 1095 fps= 94 q=23.0 size=       0kB time=00:00:36.40 bitrate=   0.0kbits/s speed=3.14x    frame= 1186 fps= 98 q=23.0 size=       0kB time=00:00:39.43 bitrate=   0.0kbits/s speed=3.26x    frame= 1278 fps=101 q=23.0 size=       0kB time=00:00:42.50 bitrate=   0.0kbits/s speed=3.37x    frame= 1374 fps=105 q=23.0 size=       0kB time=00:00:45.70 bitrate=   0.0kbits/s speed=3.49x    frame= 1466 fps=108 q=23.0 size=       0kB time=00:00:48.76 bitrate=   0.0kbits/s speed=3.58x    frame= 1565 fps=111 q=23.0 size=       0kB time=00:00:52.06 bitrate=   0.0kbits/s speed=3.69x    frame= 1664 fps=114 q=23.0 size=     256kB time=00:00:55.36 bitrate=  37.9kbits/s speed=3.79x    frame= 1772 fps=117 q=23.0 size=     256kB time=00:00:58.96 bitrate=  35.6kbits/s speed= 3.9x    [mp4 @ 0x5fc0469a7480] Starting second pass: moving the moov atom to the beginning of the file
frame= 1800 fps=118 q=23.0 Lsize=     293kB time=00:00:59.96 bitrate=  40.1kbits/s speed=3.93x    
video:285kB audio:0kB subtitle:0kB other streams:0kB global headers:0kB muxing overhead: 2.801454%
